<svg width="240" height="240" viewBox="0 0 240 240" fill="none" xmlns="http://www.w3.org/2000/svg">
<path d="M49.7516 106.383H55.0416L59.1433 122.445H59.2199V106.383H62.9766V133.217H58.6449L53.5849 113.628H53.5083V133.217H49.7516V106.383Z" fill="#F24C00"/>
<path d="M72.244 133.6C70.1995 133.6 68.6406 133.025 67.5673 131.875C66.494 130.699 65.9573 129.026 65.9573 126.853V106.383H70.174V127.16C70.174 128.08 70.3529 128.744 70.7106 129.153C71.094 129.562 71.6306 129.767 72.3206 129.767C73.0106 129.767 73.5345 129.562 73.8923 129.153C74.2756 128.744 74.4673 128.08 74.4673 127.16V106.383H78.5306V126.853C78.5306 129.026 77.994 130.699 76.9206 131.875C75.8473 133.025 74.2884 133.6 72.244 133.6Z" fill="#F24C00"/>
<path d="M84.8305 110.217H80.4221V106.383H93.4555V110.217H89.0471V133.217H84.8305V110.217Z" fill="#F24C00"/>
<path d="M95.497 106.383H101.745C103.918 106.383 105.502 106.894 106.499 107.917C107.495 108.913 107.994 110.459 107.994 112.555V114.203C107.994 116.989 107.074 118.752 105.234 119.493V119.57C106.256 119.877 106.971 120.503 107.38 121.448C107.815 122.394 108.032 123.659 108.032 125.243V129.958C108.032 130.725 108.058 131.351 108.109 131.837C108.16 132.297 108.288 132.757 108.492 133.217H104.199C104.045 132.782 103.943 132.373 103.892 131.99C103.841 131.607 103.815 130.917 103.815 129.92V125.013C103.815 123.787 103.611 122.931 103.202 122.445C102.819 121.959 102.141 121.717 101.17 121.717H99.7137V133.217H95.497V106.383ZM101.247 117.883C102.09 117.883 102.716 117.666 103.125 117.232C103.56 116.797 103.777 116.069 103.777 115.047V112.977C103.777 112.006 103.598 111.303 103.24 110.868C102.908 110.434 102.371 110.217 101.63 110.217H99.7137V117.883H101.247Z" fill="#F24C00"/>
<path d="M110.958 106.383H115.174V133.217H110.958V106.383Z" fill="#F24C00"/>
<path d="M123.814 133.6C121.77 133.6 120.223 133.025 119.176 131.875C118.128 130.699 117.604 129.026 117.604 126.853V125.32H121.591V127.16C121.591 128.898 122.319 129.767 123.776 129.767C124.491 129.767 125.028 129.562 125.386 129.153C125.769 128.719 125.961 128.029 125.961 127.083C125.961 125.959 125.705 124.975 125.194 124.132C124.683 123.263 123.737 122.228 122.357 121.027C120.62 119.493 119.406 118.113 118.716 116.887C118.026 115.634 117.681 114.229 117.681 112.67C117.681 110.549 118.217 108.913 119.291 107.763C120.364 106.588 121.923 106 123.967 106C125.986 106 127.507 106.588 128.529 107.763C129.577 108.913 130.101 110.574 130.101 112.747V113.858H126.114V112.478C126.114 111.558 125.935 110.894 125.577 110.485C125.22 110.051 124.696 109.833 124.006 109.833C122.6 109.833 121.897 110.689 121.897 112.402C121.897 113.373 122.153 114.28 122.664 115.123C123.201 115.967 124.159 116.989 125.539 118.19C127.302 119.723 128.516 121.116 129.181 122.368C129.845 123.621 130.177 125.09 130.177 126.777C130.177 128.974 129.628 130.661 128.529 131.837C127.456 133.012 125.884 133.6 123.814 133.6Z" fill="#F24C00"/>
<path d="M132.595 106.383H138.805C140.901 106.383 142.472 106.946 143.52 108.07C144.568 109.194 145.092 110.843 145.092 113.015V115.66C145.092 117.832 144.568 119.481 143.52 120.605C142.472 121.729 140.901 122.292 138.805 122.292H136.812V133.217H132.595V106.383ZM138.805 118.458C139.495 118.458 140.006 118.267 140.338 117.883C140.696 117.5 140.875 116.848 140.875 115.928V112.747C140.875 111.827 140.696 111.175 140.338 110.792C140.006 110.408 139.495 110.217 138.805 110.217H136.812V118.458H138.805Z" fill="#F24C00"/>
<path d="M153.477 133.6C151.407 133.6 149.822 133.012 148.723 131.837C147.625 130.661 147.075 129 147.075 126.853V112.747C147.075 110.6 147.625 108.939 148.723 107.763C149.822 106.588 151.407 106 153.477 106C155.547 106 157.131 106.588 158.23 107.763C159.329 108.939 159.878 110.6 159.878 112.747V126.853C159.878 129 159.329 130.661 158.23 131.837C157.131 133.012 155.547 133.6 153.477 133.6ZM153.477 129.767C154.933 129.767 155.662 128.885 155.662 127.122V112.478C155.662 110.715 154.933 109.833 153.477 109.833C152.02 109.833 151.292 110.715 151.292 112.478V127.122C151.292 128.885 152.02 129.767 153.477 129.767Z" fill="#F24C00"/>
<path d="M162.73 106.383H168.978C171.151 106.383 172.735 106.894 173.732 107.917C174.728 108.913 175.227 110.459 175.227 112.555V114.203C175.227 116.989 174.307 118.752 172.467 119.493V119.57C173.489 119.877 174.205 120.503 174.613 121.448C175.048 122.394 175.265 123.659 175.265 125.243V129.958C175.265 130.725 175.291 131.351 175.342 131.837C175.393 132.297 175.521 132.757 175.725 133.217H171.432C171.278 132.782 171.176 132.373 171.125 131.99C171.074 131.607 171.048 130.917 171.048 129.92V125.013C171.048 123.787 170.844 122.931 170.435 122.445C170.052 121.959 169.375 121.717 168.403 121.717H166.947V133.217H162.73V106.383ZM168.48 117.883C169.323 117.883 169.95 117.666 170.358 117.232C170.793 116.797 171.01 116.069 171.01 115.047V112.977C171.01 112.006 170.831 111.303 170.473 110.868C170.141 110.434 169.605 110.217 168.863 110.217H166.947V117.883H168.48Z" fill="#F24C00"/>
<path d="M181.413 110.217H177.004V106.383H190.038V110.217H185.629V133.217H181.413V110.217Z" fill="#F24C00"/>
</svg>
