<svg width="148" height="30" viewBox="0 0 148 30" fill="none" xmlns="http://www.w3.org/2000/svg">
<path d="M0.64 0.999998H6.16L10.44 17.76H10.52V0.999998H14.44V29H9.92L4.64 8.56H4.56V29H0.64V0.999998ZM24.1103 29.4C21.977 29.4 20.3503 28.8 19.2303 27.6C18.1103 26.3733 17.5503 24.6267 17.5503 22.36V0.999998H21.9503V22.68C21.9503 23.64 22.137 24.3333 22.5103 24.76C22.9103 25.1867 23.4703 25.4 24.1903 25.4C24.9103 25.4 25.457 25.1867 25.8303 24.76C26.2303 24.3333 26.4303 23.64 26.4303 22.68V0.999998H30.6703V22.36C30.6703 24.6267 30.1103 26.3733 28.9903 27.6C27.8703 28.8 26.2436 29.4 24.1103 29.4ZM37.2441 5H32.6441V0.999998H46.2441V5H41.6441V29H37.2441V5ZM48.3744 0.999998H54.8944C57.161 0.999998 58.8144 1.53333 59.8544 2.6C60.8944 3.64 61.4144 5.25333 61.4144 7.44V9.16C61.4144 12.0667 60.4544 13.9067 58.5344 14.68V14.76C59.601 15.08 60.3477 15.7333 60.7744 16.72C61.2277 17.7067 61.4544 19.0267 61.4544 20.68V25.6C61.4544 26.4 61.481 27.0533 61.5344 27.56C61.5877 28.04 61.721 28.52 61.9344 29H57.4544C57.2944 28.5467 57.1877 28.12 57.1344 27.72C57.081 27.32 57.0544 26.6 57.0544 25.56V20.44C57.0544 19.16 56.841 18.2667 56.4144 17.76C56.0144 17.2533 55.3077 17 54.2944 17H52.7744V29H48.3744V0.999998ZM54.3744 13C55.2544 13 55.9077 12.7733 56.3344 12.32C56.7877 11.8667 57.0144 11.1067 57.0144 10.04V7.88C57.0144 6.86667 56.8277 6.13333 56.4544 5.68C56.1077 5.22667 55.5477 5 54.7744 5H52.7744V13H54.3744ZM64.5072 0.999998H68.9072V29H64.5072V0.999998ZM77.9225 29.4C75.7892 29.4 74.1758 28.8 73.0825 27.6C71.9892 26.3733 71.4425 24.6267 71.4425 22.36V20.76H75.6025V22.68C75.6025 24.4933 76.3625 25.4 77.8825 25.4C78.6292 25.4 79.1892 25.1867 79.5625 24.76C79.9625 24.3067 80.1625 23.5867 80.1625 22.6C80.1625 21.4267 79.8958 20.4 79.3625 19.52C78.8292 18.6133 77.8425 17.5333 76.4025 16.28C74.5892 14.68 73.3225 13.24 72.6025 11.96C71.8825 10.6533 71.5225 9.18667 71.5225 7.56C71.5225 5.34667 72.0825 3.64 73.2025 2.44C74.3225 1.21333 75.9492 0.599998 78.0825 0.599998C80.1892 0.599998 81.7758 1.21333 82.8425 2.44C83.9358 3.64 84.4825 5.37333 84.4825 7.64V8.8H80.3225V7.36C80.3225 6.4 80.1358 5.70667 79.7625 5.28C79.3892 4.82667 78.8425 4.6 78.1225 4.6C76.6558 4.6 75.9225 5.49333 75.9225 7.28C75.9225 8.29333 76.1892 9.24 76.7225 10.12C77.2825 11 78.2825 12.0667 79.7225 13.32C81.5625 14.92 82.8292 16.3733 83.5225 17.68C84.2158 18.9867 84.5625 20.52 84.5625 22.28C84.5625 24.5733 83.9892 26.3333 82.8425 27.56C81.7225 28.7867 80.0825 29.4 77.9225 29.4ZM87.0853 0.999998H93.5653C95.752 0.999998 97.392 1.58667 98.4853 2.76C99.5786 3.93333 100.125 5.65333 100.125 7.92V10.68C100.125 12.9467 99.5786 14.6667 98.4853 15.84C97.392 17.0133 95.752 17.6 93.5653 17.6H91.4853V29H87.0853V0.999998ZM93.5653 13.6C94.2853 13.6 94.8186 13.4 95.1653 13C95.5386 12.6 95.7253 11.92 95.7253 10.96V7.64C95.7253 6.68 95.5386 6 95.1653 5.6C94.8186 5.2 94.2853 5 93.5653 5H91.4853V13.6H93.5653ZM108.875 29.4C106.715 29.4 105.062 28.7867 103.915 27.56C102.768 26.3333 102.195 24.6 102.195 22.36V7.64C102.195 5.4 102.768 3.66667 103.915 2.44C105.062 1.21333 106.715 0.599998 108.875 0.599998C111.035 0.599998 112.688 1.21333 113.835 2.44C114.982 3.66667 115.555 5.4 115.555 7.64V22.36C115.555 24.6 114.982 26.3333 113.835 27.56C112.688 28.7867 111.035 29.4 108.875 29.4ZM108.875 25.4C110.395 25.4 111.155 24.48 111.155 22.64V7.36C111.155 5.52 110.395 4.6 108.875 4.6C107.355 4.6 106.595 5.52 106.595 7.36V22.64C106.595 24.48 107.355 25.4 108.875 25.4ZM118.531 0.999998H125.051C127.317 0.999998 128.971 1.53333 130.011 2.6C131.051 3.64 131.571 5.25333 131.571 7.44V9.16C131.571 12.0667 130.611 13.9067 128.691 14.68V14.76C129.757 15.08 130.504 15.7333 130.931 16.72C131.384 17.7067 131.611 19.0267 131.611 20.68V25.6C131.611 26.4 131.637 27.0533 131.691 27.56C131.744 28.04 131.877 28.52 132.091 29H127.611C127.451 28.5467 127.344 28.12 127.291 27.72C127.237 27.32 127.211 26.6 127.211 25.56V20.44C127.211 19.16 126.997 18.2667 126.571 17.76C126.171 17.2533 125.464 17 124.451 17H122.931V29H118.531V0.999998ZM124.531 13C125.411 13 126.064 12.7733 126.491 12.32C126.944 11.8667 127.171 11.1067 127.171 10.04V7.88C127.171 6.86667 126.984 6.13333 126.611 5.68C126.264 5.22667 125.704 5 124.931 5H122.931V13H124.531ZM138.025 5H133.425V0.999998H147.025V5H142.425V29H138.025V5Z" fill="#F24C00"/>
</svg>
