<svg width="24" height="24" viewBox="0 0 24 24" fill="none" xmlns="http://www.w3.org/2000/svg">
<g clip-path="url(#clip0_92_3236)">
<mask id="mask0_92_3236" style="mask-type:luminance" maskUnits="userSpaceOnUse" x="0" y="0" width="24" height="24">
<path d="M12 24C18.6274 24 24 18.6274 24 12C24 5.37258 18.6274 0 12 0C5.37258 0 0 5.37258 0 12C0 18.6274 5.37258 24 12 24Z" fill="white"/>
</mask>
<g mask="url(#mask0_92_3236)">
<path d="M24 0H0V24H24V0Z" fill="#EA2E2E"/>
<path d="M12 0H0V12H12V0Z" fill="#1F3DB6"/>
<path d="M6.9375 2.625L7.64062 3.9375H6.23438L6.9375 2.625Z" fill="white"/>
<path d="M9.09376 3.20276L9.04643 4.69098L7.82858 3.98785L9.09376 3.20276Z" fill="white"/>
<path d="M10.6722 4.78126L9.88715 6.04643L9.18402 4.82858L10.6722 4.78126Z" fill="white"/>
<path d="M11.25 6.9375L9.9375 7.64062V6.23438L11.25 6.9375Z" fill="white"/>
<path d="M10.6722 9.09376L9.18402 9.04643L9.88715 7.82858L10.6722 9.09376Z" fill="white"/>
<path d="M9.09374 10.6722L7.82857 9.88715L9.04642 9.18402L9.09374 10.6722Z" fill="white"/>
<path d="M6.9375 11.25L6.23438 9.9375H7.64062L6.9375 11.25Z" fill="white"/>
<path d="M4.78124 10.6722L4.82857 9.18402L6.04642 9.88715L4.78124 10.6722Z" fill="white"/>
<path d="M3.20276 9.09374L3.98785 7.82857L4.69098 9.04642L3.20276 9.09374Z" fill="white"/>
<path d="M2.625 6.9375L3.9375 6.23438V7.64062L2.625 6.9375Z" fill="white"/>
<path d="M3.20276 4.78124L4.69098 4.82857L3.98785 6.04642L3.20276 4.78124Z" fill="white"/>
<path d="M4.78126 3.20276L6.04643 3.98785L4.82858 4.69098L4.78126 3.20276Z" fill="white"/>
<path d="M6.9375 9.375C8.28369 9.375 9.375 8.28369 9.375 6.9375C9.375 5.59131 8.28369 4.5 6.9375 4.5C5.59131 4.5 4.5 5.59131 4.5 6.9375C4.5 8.28369 5.59131 9.375 6.9375 9.375Z" fill="white"/>
</g>
</g>
<defs>
<clipPath id="clip0_92_3236">
<rect width="24" height="24" fill="white"/>
</clipPath>
</defs>
</svg>
